/* XPM */
static char *repeat_white_18x18[] = {
/* columns rows colors chars-per-pixel */
"18 18 2 1 ",
"  c white",
". c None",
/* pixels */
"..................",
"..................",
"............. ....",
".............  ...",
"....            ..",
".... ........  ...",
".... ........ ....",
".... .............",
"..................",
"..................",
"............. ....",
".... ........ ....",
"...  ........ ....",
"..            ....",
"...  .............",
".... .............",
"..................",
".................."
};
